<svg id="fi_9092185" height="512" viewBox="0 0 64 64" width="512" xmlns="http://www.w3.org/2000/svg" data-name="Layer 1"><path d="m41.7 18h-19.4a14 14 0 0 0 -14 14v14.38a14 14 0 0 0 14 14h19.4a14 14 0 0 0 14-14v-14.38a14 14 0 0 0 -14-14zm8.83 24.9a11 11 0 0 1 -10.94 10.97h-15.17a11 11 0 0 1 -11-10.95v-7.45a11 11 0 0 1 11-10.94h15.17a11 11 0 0 1 10.94 10.94z"></path><path d="m39.59 26.61h-15.17a8.88 8.88 0 0 0 -8.87 8.86v7.45a8.88 8.88 0 0 0 8.87 8.87h15.17a8.87 8.87 0 0 0 8.86-8.87v-7.45a8.87 8.87 0 0 0 -8.86-8.86zm-16.59 12.65a3.82 3.82 0 1 1 3.82-3.83 3.83 3.83 0 0 1 -3.82 3.83zm15.05 5a8.42 8.42 0 0 1 -5.87 2.51 9.52 9.52 0 0 1 -6.18-2.5 1 1 0 0 1 1.43-1.53c.19.19 4.69 4.28 9.22 0a1 1 0 1 1 1.35 1.53zm3-5a3.82 3.82 0 1 1 3.82-3.83 3.83 3.83 0 0 1 -3.87 3.83z"></path><path d="m23 33.7a1.74 1.74 0 1 0 1.74 1.73 1.73 1.73 0 0 0 -1.74-1.73z"></path><path d="m41 33.7a1.74 1.74 0 1 0 1.74 1.73 1.73 1.73 0 0 0 -1.74-1.73z"></path><path d="m58.25 30.71v1.31 14.36 1.3c3.32-.83 5.75-4.34 5.75-8.48s-2.43-7.66-5.75-8.49z"></path><path d="m5.75 30.71c-3.32.83-5.75 4.35-5.75 8.49s2.43 7.65 5.75 8.48c0-.43 0-.86 0-1.3v-14.38c-.05-.42-.03-.86 0-1.29z"></path><path d="m30.75 10.56v5.58h2.5v-5.58a3.58 3.58 0 1 0 -2.5 0z"></path></svg>