<svg id="fi_11502485" enable-background="new 0 0 512 512" height="512" viewBox="0 0 512 512" width="512" xmlns="http://www.w3.org/2000/svg"><path clip-rule="evenodd" d="m68.547 430.051c14.777 53.151 57.495 64.488 107.128 50.636 34.522-9.635 70.461-30.392 99.711-51.488 21.422-15.45 47.029-30.738 72.415-38.449 22.689-6.892 49.579-9.017 60.894 16.353 4.054 9.09 5.535 19.698 5.933 29.569.212 5.252 4.638 9.361 9.896 9.155 5.247-.206 9.361-4.636 9.149-9.888-2.321-57.297-36.363-80.119-91.391-63.404-27.386 8.319-54.897 24.533-78.011 41.204-27.474 19.814-61.231 39.52-93.648 48.567-25.497 7.116-56.084 9.218-73.371-14.75-4.859-6.738-8.114-14.599-10.328-22.569-1.407-5.066-6.655-8.056-11.728-6.654-5.061 1.399-8.058 6.653-6.649 11.718zm257.702-322.198c-4.735-4.733-4.736-12.434-.002-17.168l57.107-57.107c10.232-10.231 26.828-10.228 37.062-.002l15.729 15.718c10.209 10.202 10.206 26.856.002 37.06l-57.108 57.108c-4.733 4.733-12.431 4.734-17.165.002zm-43.837 26.702c4.735-4.734 12.438-4.733 17.17.004l35.574 35.607c4.73 4.734 4.728 12.43-.004 17.162l-182.665 182.664c-3.983 2.967-58.928 25.571-65.166 28.142-9.917 4.089-19.898-5.818-15.882-15.765 3.882-9.616 24.008-59.753 28.065-64.906z" fill-rule="evenodd"></path></svg>