<svg id="fi_7693434" enable-background="new 0 0 24 24" height="512" viewBox="0 0 24 24" width="512" xmlns="http://www.w3.org/2000/svg"><g><path d="m18 20.2c-.4 0-.8-.1-1.2-.3-1.4-.9-.4-2.6.6-4.2.4-.6 1-1.7 1.1-2.2-.7.2-2.3 1.7-3.3 2.6-2.4 2.1-4.8 4.3-6.5 2.7-1.6-1.5.4-4.1 2.8-7.3 1.2-1.7 4.1-5.5 3.4-6.2h-.1c-2 0-7.7 5.4-11.1 9.2-.4.4-1 .4-1.4.1-.4-.4-.4-1-.1-1.4 1.5-1.6 9-9.8 12.6-9.8.9 0 1.3.4 1.6.7 1.8 1.9-.7 5.2-3.3 8.8-1.1 1.5-2.8 3.8-3 4.7.7 0 2.6-1.8 3.7-2.8 2.1-1.9 4-3.6 5.5-3 .5.2.9.6 1 1.1.4 1.2-.4 2.6-1.3 4.1-.3.4-.6 1.1-.8 1.5.4-.2 1-.7 1.5-1.2.3-.4 1-.5 1.4-.1.4.3.5 1 .1 1.4-.1-.2-1.6 1.6-3.2 1.6z"></path></g></svg>